<svg id="visual" viewBox="0 0 900 600" width="900" height="600" xmlns="http://www.w3.org/2000/svg" xmlns:xlink="http://www.w3.org/1999/xlink" version="1.1"><path d="M0 139L30 145C60 151 120 163 180 156C240 149 300 123 360 111C420 99 480 101 540 121C600 141 660 179 720 176C780 173 840 129 870 107L900 85L900 0L870 0C840 0 780 0 720 0C660 0 600 0 540 0C480 0 420 0 360 0C300 0 240 0 180 0C120 0 60 0 30 0L0 0Z" fill="#333d62"></path><path d="M0 343L30 366C60 389 120 435 180 447C240 459 300 437 360 413C420 389 480 363 540 370C600 377 660 417 720 432C780 447 840 437 870 432L900 427L900 83L870 105C840 127 780 171 720 174C660 177 600 139 540 119C480 99 420 97 360 109C300 121 240 147 180 154C120 161 60 149 30 143L0 137Z" fill="#171e37"></path><path d="M0 601L30 601C60 601 120 601 180 601C240 601 300 601 360 601C420 601 480 601 540 601C600 601 660 601 720 601C780 601 840 601 870 601L900 601L900 425L870 430C840 435 780 445 720 430C660 415 600 375 540 368C480 361 420 387 360 411C300 435 240 457 180 445C120 433 60 387 30 364L0 341Z" fill="#131829"></path></svg>