<svg id="visual" viewBox="0 0 900 600" width="900" height="600" xmlns="http://www.w3.org/2000/svg" xmlns:xlink="http://www.w3.org/1999/xlink" version="1.1"><rect x="0" y="0" width="900" height="600" fill="#171e37"></rect><path d="M0 439L25 432.5C50 426 100 413 150 413.7C200 414.3 250 428.7 300 423.2C350 417.7 400 392.3 450 381.8C500 371.3 550 375.7 600 383C650 390.3 700 400.7 750 411C800 421.3 850 431.7 875 436.8L900 442L900 601L875 601C850 601 800 601 750 601C700 601 650 601 600 601C550 601 500 601 450 601C400 601 350 601 300 601C250 601 200 601 150 601C100 601 50 601 25 601L0 601Z" fill="#2d3655"></path><path d="M0 448L25 449.8C50 451.7 100 455.3 150 463.5C200 471.7 250 484.3 300 481.2C350 478 400 459 450 455.2C500 451.3 550 462.7 600 462.7C650 462.7 700 451.3 750 447.2C800 443 850 446 875 447.5L900 449L900 601L875 601C850 601 800 601 750 601C700 601 650 601 600 601C550 601 500 601 450 601C400 601 350 601 300 601C250 601 200 601 150 601C100 601 50 601 25 601L0 601Z" fill="#131829"></path><path d="M0 529L25 526.3C50 523.7 100 518.3 150 511.7C200 505 250 497 300 502.3C350 507.7 400 526.3 450 532.7C500 539 550 533 600 524.5C650 516 700 505 750 499.3C800 493.7 850 493.3 875 493.2L900 493L900 601L875 601C850 601 800 601 750 601C700 601 650 601 600 601C550 601 500 601 450 601C400 601 350 601 300 601C250 601 200 601 150 601C100 601 50 601 25 601L0 601Z" fill="#101320"></path></svg>