<svg id="visual" viewBox="0 0 900 600" width="900" height="600" xmlns="http://www.w3.org/2000/svg" xmlns:xlink="http://www.w3.org/1999/xlink" version="1.1"><path d="M0 508L100 508L100 527L200 527L200 532L300 532L300 526L400 526L400 518L500 518L500 536L600 536L600 526L700 526L700 514L800 514L800 505L900 505L900 517L900 601L900 601L800 601L800 601L700 601L700 601L600 601L600 601L500 601L500 601L400 601L400 601L300 601L300 601L200 601L200 601L100 601L100 601L0 601Z" fill="#9900ff"></path><path d="M0 552L100 552L100 538L200 538L200 549L300 549L300 532L400 532L400 552L500 552L500 545L600 545L600 537L700 537L700 542L800 542L800 545L900 545L900 534L900 601L900 601L800 601L800 601L700 601L700 601L600 601L600 601L500 601L500 601L400 601L400 601L300 601L300 601L200 601L200 601L100 601L100 601L0 601Z" fill="#8200d9"></path><path d="M0 563L100 563L100 557L200 557L200 552L300 552L300 568L400 568L400 548L500 548L500 550L600 550L600 546L700 546L700 561L800 561L800 549L900 549L900 565L900 601L900 601L800 601L800 601L700 601L700 601L600 601L600 601L500 601L500 601L400 601L400 601L300 601L300 601L200 601L200 601L100 601L100 601L0 601Z" fill="#6c00b4"></path><path d="M0 572L100 572L100 568L200 568L200 573L300 573L300 581L400 581L400 578L500 578L500 582L600 582L600 570L700 570L700 579L800 579L800 569L900 569L900 575L900 601L900 601L800 601L800 601L700 601L700 601L600 601L600 601L500 601L500 601L400 601L400 601L300 601L300 601L200 601L200 601L100 601L100 601L0 601Z" fill="#560090"></path></svg>