<?xml version="1.0" encoding="UTF-8"?><svg xmlns="http://www.w3.org/2000/svg" xmlns:xlink="http://www.w3.org/1999/xlink" fill-opacity="1" color-rendering="auto" color-interpolation="auto" text-rendering="auto" stroke="black" stroke-linecap="square" width="525" stroke-miterlimit="10" shape-rendering="auto" stroke-opacity="1" fill="black" stroke-dasharray="none" font-weight="normal" stroke-width="1" height="756" font-family="'Dialog'" font-style="normal" stroke-linejoin="miter" font-size="12px" stroke-dashoffset="0" image-rendering="auto">
  <!--Generated by ySVG 2.5-->
  <defs id="genericDefs"/>
  <g>
    <defs id="defs1">
      <clipPath clipPathUnits="userSpaceOnUse" id="clipPath1">
        <path d="M0 0 L525 0 L525 756 L0 756 L0 0 Z"/>
      </clipPath>
      <clipPath clipPathUnits="userSpaceOnUse" id="clipPath2">
        <path d="M-9.8194 -10 L722.8195 -10 L722.8195 1045 L-9.8194 1045 L-9.8194 -10 Z"/>
      </clipPath>
      <clipPath clipPathUnits="userSpaceOnUse" id="clipPath3">
        <path d="M-9.8194 -10.9644 L722.8195 -10.9644 L722.8195 1044.0355 L-9.8194 1044.0355 L-9.8194 -10.9644 Z"/>
      </clipPath>
      <clipPath clipPathUnits="userSpaceOnUse" id="clipPath4">
        <path d="M-0 0 L-0 24 L24 24 L24 0 Z"/>
      </clipPath>
      <clipPath clipPathUnits="userSpaceOnUse" id="clipPath5">
        <path d="M-9.8194 -10.6565 L722.8195 -10.6565 L722.8195 1044.3435 L-9.8194 1044.3435 L-9.8194 -10.6565 Z"/>
      </clipPath>
      <clipPath clipPathUnits="userSpaceOnUse" id="clipPath6">
        <path d="M-0 -0 L-0 24.0001 L24 24.0001 L24 -0 Z"/>
      </clipPath>
      <clipPath clipPathUnits="userSpaceOnUse" id="clipPath7">
        <path d="M-9.8194 -10.9065 L722.8195 -10.9065 L722.8195 1044.0935 L-9.8194 1044.0935 L-9.8194 -10.9065 Z"/>
      </clipPath>
      <clipPath clipPathUnits="userSpaceOnUse" id="clipPath8">
        <path d="M-0 0.0001 L-0 24 L24 24 L24 0.0001 Z"/>
      </clipPath>
      <clipPath clipPathUnits="userSpaceOnUse" id="clipPath9">
        <path d="M-9.8194 -10.9466 L722.8195 -10.9466 L722.8195 1044.0533 L-9.8194 1044.0533 L-9.8194 -10.9466 Z"/>
      </clipPath>
      <clipPath clipPathUnits="userSpaceOnUse" id="clipPath10">
        <path d="M-0 -0.0001 L-0 24 L24 24 L24 -0.0001 Z"/>
      </clipPath>
      <clipPath clipPathUnits="userSpaceOnUse" id="clipPath11">
        <path d="M-9.8194 -10.8216 L722.8195 -10.8216 L722.8195 1044.1783 L-9.8194 1044.1783 L-9.8194 -10.8216 Z"/>
      </clipPath>
      <clipPath clipPathUnits="userSpaceOnUse" id="clipPath12">
        <path d="M0 -0 L0 23.9999 L24 23.9999 L24 -0 Z"/>
      </clipPath>
      <clipPath clipPathUnits="userSpaceOnUse" id="clipPath13">
        <path d="M-9.8194 -10.7993 L722.8195 -10.7993 L722.8195 1044.2007 L-9.8194 1044.2007 L-9.8194 -10.7993 Z"/>
      </clipPath>
      <clipPath clipPathUnits="userSpaceOnUse" id="clipPath14">
        <path d="M0 -0 L0 24 L24 24 L24 -0 Z"/>
      </clipPath>
      <clipPath clipPathUnits="userSpaceOnUse" id="clipPath15">
        <path d="M-9.8194 -10.1118 L722.8195 -10.1118 L722.8195 1044.8882 L-9.8194 1044.8882 L-9.8194 -10.1118 Z"/>
      </clipPath>
      <clipPath clipPathUnits="userSpaceOnUse" id="clipPath16">
        <path d="M0 0 L0 24 L24 24 L24 0 Z"/>
      </clipPath>
      <clipPath clipPathUnits="userSpaceOnUse" id="clipPath17">
        <path d="M-9.8194 -10.6519 L722.8195 -10.6519 L722.8195 1044.348 L-9.8194 1044.348 L-9.8194 -10.6519 Z"/>
      </clipPath>
      <clipPath clipPathUnits="userSpaceOnUse" id="clipPath18">
        <path d="M-10.3194 -10.6296 L722.3195 -10.6296 L722.3195 1044.3705 L-10.3194 1044.3705 L-10.3194 -10.6296 Z"/>
      </clipPath>
      <clipPath clipPathUnits="userSpaceOnUse" id="clipPath19">
        <path d="M-10.3194 -10.8171 L722.3195 -10.8171 L722.3195 1044.183 L-10.3194 1044.183 L-10.3194 -10.8171 Z"/>
      </clipPath>
      <clipPath clipPathUnits="userSpaceOnUse" id="clipPath20">
        <path d="M-9.8194 -10.5447 L722.8195 -10.5447 L722.8195 1044.4553 L-9.8194 1044.4553 L-9.8194 -10.5447 Z"/>
      </clipPath>
      <clipPath clipPathUnits="userSpaceOnUse" id="clipPath21">
        <path d="M-9.8194 -10.7947 L722.8195 -10.7947 L722.8195 1044.2053 L-9.8194 1044.2053 L-9.8194 -10.7947 Z"/>
      </clipPath>
      <clipPath clipPathUnits="userSpaceOnUse" id="clipPath22">
        <path d="M-10.3194 -10.5224 L722.3195 -10.5224 L722.3195 1044.4777 L-10.3194 1044.4777 L-10.3194 -10.5224 Z"/>
      </clipPath>
      <clipPath clipPathUnits="userSpaceOnUse" id="clipPath23">
        <path d="M-10.3194 -10.7099 L722.3195 -10.7099 L722.3195 1044.2902 L-10.3194 1044.2902 L-10.3194 -10.7099 Z"/>
      </clipPath>
      <clipPath clipPathUnits="userSpaceOnUse" id="clipPath24">
        <path d="M-9.8194 -10.5224 L722.8195 -10.5224 L722.8195 1044.4777 L-9.8194 1044.4777 L-9.8194 -10.5224 Z"/>
      </clipPath>
    </defs>
    <g fill="white" stroke="white">
      <path d="M11.9219 745 L11.9219 736.4062 L15.1719 736.4062 Q16.0156 736.4062 16.4688 736.4844 Q17.1094 736.5938 17.5312 736.8906 Q17.9688 737.1875 18.2188 737.7188 Q18.4844 738.25 18.4844 738.8906 Q18.4844 739.9844 17.7812 740.75 Q17.0938 741.5 15.2656 741.5 L13.0625 741.5 L13.0625 745 L11.9219 745 ZM13.0625 740.5 L15.2812 740.5 Q16.3906 740.5 16.8438 740.0938 Q17.3125 739.6719 17.3125 738.9219 Q17.3125 738.3906 17.0312 738.0156 Q16.7656 737.625 16.3281 737.5 Q16.0312 737.4219 15.2656 737.4219 L13.0625 737.4219 L13.0625 740.5 ZM19.4102 741.8906 Q19.4102 740.1562 20.3633 739.3281 Q21.1602 738.6406 22.3164 738.6406 Q23.5977 738.6406 24.4102 739.4844 Q25.2383 740.3125 25.2383 741.7969 Q25.2383 743 24.8789 743.6875 Q24.5195 744.375 23.8164 744.7656 Q23.1289 745.1406 22.3164 745.1406 Q21.0195 745.1406 20.207 744.3125 Q19.4102 743.4688 19.4102 741.8906 ZM20.4883 741.8906 Q20.4883 743.0781 21.0039 743.6719 Q21.5352 744.2656 22.3164 744.2656 Q23.1133 744.2656 23.6289 743.6719 Q24.1445 743.0781 24.1445 741.8594 Q24.1445 740.7031 23.6133 740.1094 Q23.0977 739.5156 22.3164 739.5156 Q21.5352 739.5156 21.0039 740.1094 Q20.4883 740.6875 20.4883 741.8906 ZM27.6152 745 L25.709 738.7812 L26.8027 738.7812 L27.7871 742.375 L28.1621 743.7031 Q28.1934 743.6094 28.4902 742.4219 L29.4746 738.7812 L30.5527 738.7812 L31.4902 742.3906 L31.8027 743.5781 L32.1621 742.375 L33.2246 738.7812 L34.2559 738.7812 L32.3027 745 L31.209 745 L30.2246 741.2656 L29.9746 740.2188 L28.7246 745 L27.6152 745 ZM39.3906 743 L40.4844 743.125 Q40.2344 744.0781 39.5312 744.6094 Q38.8281 745.1406 37.75 745.1406 Q36.3906 745.1406 35.5781 744.2969 Q34.7812 743.4531 34.7812 741.9375 Q34.7812 740.375 35.5938 739.5156 Q36.4062 738.6406 37.6875 738.6406 Q38.9375 738.6406 39.7188 739.4844 Q40.5156 740.3281 40.5156 741.875 Q40.5156 741.9688 40.5156 742.1562 L35.875 742.1562 Q35.9375 743.1875 36.4531 743.7344 Q36.9688 744.2656 37.75 744.2656 Q38.3281 744.2656 38.7344 743.9688 Q39.1562 743.6562 39.3906 743 ZM35.9375 741.2969 L39.4062 741.2969 Q39.3438 740.5 39.0156 740.1094 Q38.5 739.5 37.7031 739.5 Q36.9688 739.5 36.4688 739.9844 Q35.9844 740.4688 35.9375 741.2969 ZM41.7988 745 L41.7988 738.7812 L42.752 738.7812 L42.752 739.7188 Q43.1113 739.0625 43.4082 738.8594 Q43.7207 738.6406 44.0957 738.6406 Q44.627 738.6406 45.1738 738.9688 L44.8145 739.9531 Q44.4238 739.7188 44.0488 739.7188 Q43.6895 739.7188 43.4082 739.9375 Q43.1426 740.1406 43.0332 740.5156 Q42.8457 741.0781 42.8457 741.7344 L42.8457 745 L41.7988 745 ZM50.0605 743 L51.1543 743.125 Q50.9043 744.0781 50.2012 744.6094 Q49.498 745.1406 48.4199 745.1406 Q47.0605 745.1406 46.248 744.2969 Q45.4512 743.4531 45.4512 741.9375 Q45.4512 740.375 46.2637 739.5156 Q47.0762 738.6406 48.3574 738.6406 Q49.6074 738.6406 50.3887 739.4844 Q51.1855 740.3281 51.1855 741.875 Q51.1855 741.9688 51.1855 742.1562 L46.5449 742.1562 Q46.6074 743.1875 47.123 743.7344 Q47.6387 744.2656 48.4199 744.2656 Q48.998 744.2656 49.4043 743.9688 Q49.8262 743.6562 50.0605 743 ZM46.6074 741.2969 L50.0762 741.2969 Q50.0137 740.5 49.6855 740.1094 Q49.1699 739.5 48.373 739.5 Q47.6387 739.5 47.1387 739.9844 Q46.6543 740.4688 46.6074 741.2969 ZM56.5156 745 L56.5156 744.2188 Q55.9219 745.1406 54.7812 745.1406 Q54.0312 745.1406 53.4062 744.7344 Q52.7812 744.3125 52.4375 743.5781 Q52.0938 742.8438 52.0938 741.8906 Q52.0938 740.9688 52.4062 740.2031 Q52.7188 739.4375 53.3438 739.0469 Q53.9688 738.6406 54.7344 738.6406 Q55.2969 738.6406 55.7344 738.875 Q56.1719 739.1094 56.4531 739.4844 L56.4531 736.4062 L57.5 736.4062 L57.5 745 L56.5156 745 ZM53.1875 741.8906 Q53.1875 743.0938 53.6875 743.6875 Q54.1875 744.2656 54.875 744.2656 Q55.5625 744.2656 56.0469 743.7031 Q56.5312 743.1406 56.5312 741.9844 Q56.5312 740.7031 56.0312 740.1094 Q55.5469 739.5156 54.8281 739.5156 Q54.125 739.5156 53.6562 740.0938 Q53.1875 740.6562 53.1875 741.8906 ZM63.4609 745 L62.4766 745 L62.4766 736.4062 L63.5391 736.4062 L63.5391 739.4688 Q64.2109 738.6406 65.2422 738.6406 Q65.8203 738.6406 66.3203 738.875 Q66.8359 739.0938 67.1641 739.5156 Q67.5078 739.9375 67.6953 740.5312 Q67.8828 741.125 67.8828 741.7969 Q67.8828 743.3906 67.0859 744.2656 Q66.2891 745.1406 65.1953 745.1406 Q64.0859 745.1406 63.4609 744.2188 L63.4609 745 ZM63.4453 741.8438 Q63.4453 742.9531 63.7578 743.4531 Q64.2578 744.2656 65.1016 744.2656 Q65.7891 744.2656 66.2891 743.6719 Q66.8047 743.0781 66.8047 741.875 Q66.8047 740.6562 66.3203 740.0781 Q65.8359 739.5 65.1484 739.5 Q64.4609 739.5 63.9453 740.1094 Q63.4453 740.7031 63.4453 741.8438 ZM69.1191 747.3906 L68.9941 746.4062 Q69.3379 746.5 69.6035 746.5 Q69.9473 746.5 70.1504 746.375 Q70.3691 746.2656 70.5098 746.0625 Q70.6035 745.8906 70.8379 745.2656 Q70.8535 745.1875 70.9316 745.0156 L68.5566 738.7812 L69.6973 738.7812 L70.9941 742.375 Q71.2441 743.0625 71.4473 743.8281 Q71.6348 743.0938 71.8848 742.4062 L73.2129 738.7812 L74.2598 738.7812 L71.9004 745.1094 Q71.5098 746.125 71.3066 746.5156 Q71.0254 747.0469 70.6504 747.2812 Q70.291 747.5312 69.791 747.5312 Q69.4941 747.5312 69.1191 747.3906 ZM78.4531 747.3906 L78.3281 746.4062 Q78.6719 746.5 78.9375 746.5 Q79.2812 746.5 79.4844 746.375 Q79.7031 746.2656 79.8438 746.0625 Q79.9375 745.8906 80.1719 745.2656 Q80.1875 745.1875 80.2656 745.0156 L77.8906 738.7812 L79.0312 738.7812 L80.3281 742.375 Q80.5781 743.0625 80.7812 743.8281 Q80.9688 743.0938 81.2188 742.4062 L82.5469 738.7812 L83.5938 738.7812 L81.2344 745.1094 Q80.8438 746.125 80.6406 746.5156 Q80.3594 747.0469 79.9844 747.2812 Q79.625 747.5312 79.125 747.5312 Q78.8281 747.5312 78.4531 747.3906 ZM84.6875 745 L84.6875 736.4062 L90.4844 736.4062 L90.4844 737.4219 L85.8281 737.4219 L85.8281 740.0781 L89.8594 740.0781 L89.8594 741.0938 L85.8281 741.0938 L85.8281 745 L84.6875 745 ZM91.8301 737.625 L91.8301 736.4062 L92.8926 736.4062 L92.8926 737.625 L91.8301 737.625 ZM91.8301 745 L91.8301 738.7812 L92.8926 738.7812 L92.8926 745 L91.8301 745 ZM94.4648 745 L94.4648 736.4062 L95.5273 736.4062 L95.5273 745 L94.4648 745 ZM101.4121 743 L102.5059 743.125 Q102.2559 744.0781 101.5527 744.6094 Q100.8496 745.1406 99.7715 745.1406 Q98.4121 745.1406 97.5996 744.2969 Q96.8027 743.4531 96.8027 741.9375 Q96.8027 740.375 97.6152 739.5156 Q98.4277 738.6406 99.709 738.6406 Q100.959 738.6406 101.7402 739.4844 Q102.5371 740.3281 102.5371 741.875 Q102.5371 741.9688 102.5371 742.1562 L97.8965 742.1562 Q97.959 743.1875 98.4746 743.7344 Q98.9902 744.2656 99.7715 744.2656 Q100.3496 744.2656 100.7559 743.9688 Q101.1777 743.6562 101.4121 743 ZM97.959 741.2969 L101.4277 741.2969 Q101.3652 740.5 101.0371 740.1094 Q100.5215 739.5 99.7246 739.5 Q98.9902 739.5 98.4902 739.9844 Q98.0059 740.4688 97.959 741.2969 ZM103.4141 743.1406 L104.4453 742.9844 Q104.5391 743.6094 104.9297 743.9375 Q105.3359 744.2656 106.0703 744.2656 Q106.7891 744.2656 107.1328 743.9844 Q107.4922 743.6875 107.4922 743.2812 Q107.4922 742.9219 107.1797 742.7188 Q106.9609 742.5781 106.1016 742.3594 Q104.9453 742.0625 104.4922 741.8594 Q104.0547 741.6406 103.8203 741.2656 Q103.5859 740.8906 103.5859 740.4219 Q103.5859 740.0156 103.7734 739.6562 Q103.9609 739.2969 104.2891 739.0625 Q104.5391 738.8906 104.9609 738.7656 Q105.3828 738.6406 105.8828 738.6406 Q106.6016 738.6406 107.1484 738.8594 Q107.7109 739.0625 107.9766 739.4219 Q108.2422 739.7812 108.3359 740.375 L107.3047 740.5156 Q107.2422 740.0469 106.8984 739.7812 Q106.5703 739.5 105.9453 739.5 Q105.2266 739.5 104.9141 739.75 Q104.6016 739.9844 104.6016 740.3125 Q104.6016 740.5156 104.7266 740.6719 Q104.8672 740.8438 105.1328 740.9531 Q105.2891 741.0156 106.0703 741.2188 Q107.1953 741.5312 107.6328 741.7188 Q108.0703 741.9062 108.3203 742.2656 Q108.5703 742.625 108.5703 743.1719 Q108.5703 743.7031 108.2578 744.1719 Q107.9609 744.625 107.3828 744.8906 Q106.8047 745.1406 106.0703 745.1406 Q104.8516 745.1406 104.2109 744.6406 Q103.5859 744.125 103.4141 743.1406 Z" stroke="none" clip-path="url(#clipPath1)"/>
    </g>
    <g fill="silver" stroke="silver">
      <path d="M10.9219 744 L10.9219 735.4062 L14.1719 735.4062 Q15.0156 735.4062 15.4688 735.4844 Q16.1094 735.5938 16.5312 735.8906 Q16.9688 736.1875 17.2188 736.7188 Q17.4844 737.25 17.4844 737.8906 Q17.4844 738.9844 16.7812 739.75 Q16.0938 740.5 14.2656 740.5 L12.0625 740.5 L12.0625 744 L10.9219 744 ZM12.0625 739.5 L14.2812 739.5 Q15.3906 739.5 15.8438 739.0938 Q16.3125 738.6719 16.3125 737.9219 Q16.3125 737.3906 16.0312 737.0156 Q15.7656 736.625 15.3281 736.5 Q15.0312 736.4219 14.2656 736.4219 L12.0625 736.4219 L12.0625 739.5 ZM18.4102 740.8906 Q18.4102 739.1562 19.3633 738.3281 Q20.1602 737.6406 21.3164 737.6406 Q22.5977 737.6406 23.4102 738.4844 Q24.2383 739.3125 24.2383 740.7969 Q24.2383 742 23.8789 742.6875 Q23.5195 743.375 22.8164 743.7656 Q22.1289 744.1406 21.3164 744.1406 Q20.0195 744.1406 19.207 743.3125 Q18.4102 742.4688 18.4102 740.8906 ZM19.4883 740.8906 Q19.4883 742.0781 20.0039 742.6719 Q20.5352 743.2656 21.3164 743.2656 Q22.1133 743.2656 22.6289 742.6719 Q23.1445 742.0781 23.1445 740.8594 Q23.1445 739.7031 22.6133 739.1094 Q22.0977 738.5156 21.3164 738.5156 Q20.5352 738.5156 20.0039 739.1094 Q19.4883 739.6875 19.4883 740.8906 ZM26.6152 744 L24.709 737.7812 L25.8027 737.7812 L26.7871 741.375 L27.1621 742.7031 Q27.1934 742.6094 27.4902 741.4219 L28.4746 737.7812 L29.5527 737.7812 L30.4902 741.3906 L30.8027 742.5781 L31.1621 741.375 L32.2246 737.7812 L33.2559 737.7812 L31.3027 744 L30.209 744 L29.2246 740.2656 L28.9746 739.2188 L27.7246 744 L26.6152 744 ZM38.3906 742 L39.4844 742.125 Q39.2344 743.0781 38.5312 743.6094 Q37.8281 744.1406 36.75 744.1406 Q35.3906 744.1406 34.5781 743.2969 Q33.7812 742.4531 33.7812 740.9375 Q33.7812 739.375 34.5938 738.5156 Q35.4062 737.6406 36.6875 737.6406 Q37.9375 737.6406 38.7188 738.4844 Q39.5156 739.3281 39.5156 740.875 Q39.5156 740.9688 39.5156 741.1562 L34.875 741.1562 Q34.9375 742.1875 35.4531 742.7344 Q35.9688 743.2656 36.75 743.2656 Q37.3281 743.2656 37.7344 742.9688 Q38.1562 742.6562 38.3906 742 ZM34.9375 740.2969 L38.4062 740.2969 Q38.3438 739.5 38.0156 739.1094 Q37.5 738.5 36.7031 738.5 Q35.9688 738.5 35.4688 738.9844 Q34.9844 739.4688 34.9375 740.2969 ZM40.7988 744 L40.7988 737.7812 L41.752 737.7812 L41.752 738.7188 Q42.1113 738.0625 42.4082 737.8594 Q42.7207 737.6406 43.0957 737.6406 Q43.627 737.6406 44.1738 737.9688 L43.8145 738.9531 Q43.4238 738.7188 43.0488 738.7188 Q42.6895 738.7188 42.4082 738.9375 Q42.1426 739.1406 42.0332 739.5156 Q41.8457 740.0781 41.8457 740.7344 L41.8457 744 L40.7988 744 ZM49.0605 742 L50.1543 742.125 Q49.9043 743.0781 49.2012 743.6094 Q48.498 744.1406 47.4199 744.1406 Q46.0605 744.1406 45.248 743.2969 Q44.4512 742.4531 44.4512 740.9375 Q44.4512 739.375 45.2637 738.5156 Q46.0762 737.6406 47.3574 737.6406 Q48.6074 737.6406 49.3887 738.4844 Q50.1855 739.3281 50.1855 740.875 Q50.1855 740.9688 50.1855 741.1562 L45.5449 741.1562 Q45.6074 742.1875 46.123 742.7344 Q46.6387 743.2656 47.4199 743.2656 Q47.998 743.2656 48.4043 742.9688 Q48.8262 742.6562 49.0605 742 ZM45.6074 740.2969 L49.0762 740.2969 Q49.0137 739.5 48.6855 739.1094 Q48.1699 738.5 47.373 738.5 Q46.6387 738.5 46.1387 738.9844 Q45.6543 739.4688 45.6074 740.2969 ZM55.5156 744 L55.5156 743.2188 Q54.9219 744.1406 53.7812 744.1406 Q53.0312 744.1406 52.4062 743.7344 Q51.7812 743.3125 51.4375 742.5781 Q51.0938 741.8438 51.0938 740.8906 Q51.0938 739.9688 51.4062 739.2031 Q51.7188 738.4375 52.3438 738.0469 Q52.9688 737.6406 53.7344 737.6406 Q54.2969 737.6406 54.7344 737.875 Q55.1719 738.1094 55.4531 738.4844 L55.4531 735.4062 L56.5 735.4062 L56.5 744 L55.5156 744 ZM52.1875 740.8906 Q52.1875 742.0938 52.6875 742.6875 Q53.1875 743.2656 53.875 743.2656 Q54.5625 743.2656 55.0469 742.7031 Q55.5312 742.1406 55.5312 740.9844 Q55.5312 739.7031 55.0312 739.1094 Q54.5469 738.5156 53.8281 738.5156 Q53.125 738.5156 52.6562 739.0938 Q52.1875 739.6562 52.1875 740.8906 ZM62.4609 744 L61.4766 744 L61.4766 735.4062 L62.5391 735.4062 L62.5391 738.4688 Q63.2109 737.6406 64.2422 737.6406 Q64.8203 737.6406 65.3203 737.875 Q65.8359 738.0938 66.1641 738.5156 Q66.5078 738.9375 66.6953 739.5312 Q66.8828 740.125 66.8828 740.7969 Q66.8828 742.3906 66.0859 743.2656 Q65.2891 744.1406 64.1953 744.1406 Q63.0859 744.1406 62.4609 743.2188 L62.4609 744 ZM62.4453 740.8438 Q62.4453 741.9531 62.7578 742.4531 Q63.2578 743.2656 64.1016 743.2656 Q64.7891 743.2656 65.2891 742.6719 Q65.8047 742.0781 65.8047 740.875 Q65.8047 739.6562 65.3203 739.0781 Q64.8359 738.5 64.1484 738.5 Q63.4609 738.5 62.9453 739.1094 Q62.4453 739.7031 62.4453 740.8438 ZM68.1191 746.3906 L67.9941 745.4062 Q68.3379 745.5 68.6035 745.5 Q68.9473 745.5 69.1504 745.375 Q69.3691 745.2656 69.5098 745.0625 Q69.6035 744.8906 69.8379 744.2656 Q69.8535 744.1875 69.9316 744.0156 L67.5566 737.7812 L68.6973 737.7812 L69.9941 741.375 Q70.2441 742.0625 70.4473 742.8281 Q70.6348 742.0938 70.8848 741.4062 L72.2129 737.7812 L73.2598 737.7812 L70.9004 744.1094 Q70.5098 745.125 70.3066 745.5156 Q70.0254 746.0469 69.6504 746.2812 Q69.291 746.5312 68.791 746.5312 Q68.4941 746.5312 68.1191 746.3906 ZM77.4531 746.3906 L77.3281 745.4062 Q77.6719 745.5 77.9375 745.5 Q78.2812 745.5 78.4844 745.375 Q78.7031 745.2656 78.8438 745.0625 Q78.9375 744.8906 79.1719 744.2656 Q79.1875 744.1875 79.2656 744.0156 L76.8906 737.7812 L78.0312 737.7812 L79.3281 741.375 Q79.5781 742.0625 79.7812 742.8281 Q79.9688 742.0938 80.2188 741.4062 L81.5469 737.7812 L82.5938 737.7812 L80.2344 744.1094 Q79.8438 745.125 79.6406 745.5156 Q79.3594 746.0469 78.9844 746.2812 Q78.625 746.5312 78.125 746.5312 Q77.8281 746.5312 77.4531 746.3906 ZM83.6875 744 L83.6875 735.4062 L89.4844 735.4062 L89.4844 736.4219 L84.8281 736.4219 L84.8281 739.0781 L88.8594 739.0781 L88.8594 740.0938 L84.8281 740.0938 L84.8281 744 L83.6875 744 ZM90.8301 736.625 L90.8301 735.4062 L91.8926 735.4062 L91.8926 736.625 L90.8301 736.625 ZM90.8301 744 L90.8301 737.7812 L91.8926 737.7812 L91.8926 744 L90.8301 744 ZM93.4648 744 L93.4648 735.4062 L94.5273 735.4062 L94.5273 744 L93.4648 744 ZM100.4121 742 L101.5059 742.125 Q101.2559 743.0781 100.5527 743.6094 Q99.8496 744.1406 98.7715 744.1406 Q97.4121 744.1406 96.5996 743.2969 Q95.8027 742.4531 95.8027 740.9375 Q95.8027 739.375 96.6152 738.5156 Q97.4277 737.6406 98.709 737.6406 Q99.959 737.6406 100.7402 738.4844 Q101.5371 739.3281 101.5371 740.875 Q101.5371 740.9688 101.5371 741.1562 L96.8965 741.1562 Q96.959 742.1875 97.4746 742.7344 Q97.9902 743.2656 98.7715 743.2656 Q99.3496 743.2656 99.7559 742.9688 Q100.1777 742.6562 100.4121 742 ZM96.959 740.2969 L100.4277 740.2969 Q100.3652 739.5 100.0371 739.1094 Q99.5215 738.5 98.7246 738.5 Q97.9902 738.5 97.4902 738.9844 Q97.0059 739.4688 96.959 740.2969 ZM102.4141 742.1406 L103.4453 741.9844 Q103.5391 742.6094 103.9297 742.9375 Q104.3359 743.2656 105.0703 743.2656 Q105.7891 743.2656 106.1328 742.9844 Q106.4922 742.6875 106.4922 742.2812 Q106.4922 741.9219 106.1797 741.7188 Q105.9609 741.5781 105.1016 741.3594 Q103.9453 741.0625 103.4922 740.8594 Q103.0547 740.6406 102.8203 740.2656 Q102.5859 739.8906 102.5859 739.4219 Q102.5859 739.0156 102.7734 738.6562 Q102.9609 738.2969 103.2891 738.0625 Q103.5391 737.8906 103.9609 737.7656 Q104.3828 737.6406 104.8828 737.6406 Q105.6016 737.6406 106.1484 737.8594 Q106.7109 738.0625 106.9766 738.4219 Q107.2422 738.7812 107.3359 739.375 L106.3047 739.5156 Q106.2422 739.0469 105.8984 738.7812 Q105.5703 738.5 104.9453 738.5 Q104.2266 738.5 103.9141 738.75 Q103.6016 738.9844 103.6016 739.3125 Q103.6016 739.5156 103.7266 739.6719 Q103.8672 739.8438 104.1328 739.9531 Q104.2891 740.0156 105.0703 740.2188 Q106.1953 740.5312 106.6328 740.7188 Q107.0703 740.9062 107.3203 741.2656 Q107.5703 741.625 107.5703 742.1719 Q107.5703 742.7031 107.2578 743.1719 Q106.9609 743.625 106.3828 743.8906 Q105.8047 744.1406 105.0703 744.1406 Q103.8516 744.1406 103.2109 743.6406 Q102.5859 743.125 102.4141 742.1406 Z" stroke="none" clip-path="url(#clipPath1)"/>
    </g>
    <g fill="rgb(255,255,204)" transform="matrix(0.7166,0,0,0.7166,7.0365,7.1659)" stroke="rgb(255,255,204)">
      <rect x="325" width="179" height="144.3974" y="570.4421" clip-path="url(#clipPath2)" stroke="none"/>
    </g>
    <g fill="gray" stroke-miterlimit="1.45" transform="matrix(0.7166,0,0,0.7166,7.0365,7.1659)" stroke-linecap="butt" stroke="gray">
      <rect fill="none" x="325" width="179" height="144.3974" y="570.4421" clip-path="url(#clipPath2)"/>
      <text x="386.5" y="588.0668" clip-path="url(#clipPath2)" fill="black" font-family="'Inter'" stroke="none" xml:space="preserve">telephone</text>
      <line stroke-linecap="square" clip-path="url(#clipPath2)" fill="none" x1="326" x2="503" y1="594" y2="594" stroke-miterlimit="10"/>
    </g>
    <g stroke-linecap="round" transform="matrix(0.4777,0,0,0.4777,242.7938,435.6598)" fill="silver" image-rendering="optimizeQuality" stroke-linejoin="round" stroke="silver" stroke-width="2" stroke-miterlimit="4">
      <path fill="none" d="M12.4 2.7 C13.3 1.8 14.9 1.8 15.8 2.7 L21.3 8.2 C22.2 9.1 22.2 10.7 21.3 11.6 L17.6 15.3 C16.7 16.2 15.1 16.2 14.2 15.3 L8.7 9.8 C7.8 8.9 7.8 7.3 8.7 6.4 Z" clip-path="url(#clipPath4)"/>
    </g>
    <g stroke-linecap="round" transform="matrix(0.4777,0,0,0.4777,242.7938,435.6598)" fill="silver" image-rendering="optimizeQuality" stroke-linejoin="round" stroke="silver" stroke-width="2" stroke-miterlimit="4">
      <path fill="none" d="M14 7 L17 10" clip-path="url(#clipPath4)"/>
    </g>
    <g stroke-linecap="round" transform="matrix(0.4777,0,0,0.4777,242.7938,435.6598)" fill="silver" image-rendering="optimizeQuality" stroke-linejoin="round" stroke="silver" stroke-width="2" stroke-miterlimit="4">
      <path fill="none" d="M9.4 10.6 L2 18 L2 21 C2 21.6 2.4 22 3 22 L7 22 L7 19 L10 19 L10 16 L12 16 L13.4 14.6" clip-path="url(#clipPath4)"/>
    </g>
    <g stroke-miterlimit="1.45" font-size="11px" font-weight="bold" font-family="'Inter'" transform="matrix(0.7166,0,0,0.7166,7.0365,7.1659)" stroke-linecap="butt">
      <text x="351" xml:space="preserve" y="611.6207" clip-path="url(#clipPath2)" stroke="none">id</text>
    </g>
    <g stroke-miterlimit="1.45" font-size="11px" font-family="'Inter'" transform="matrix(0.7166,0,0,0.7166,7.0365,7.1659)" stroke-linecap="butt">
      <text x="439" xml:space="preserve" y="611.6207" clip-path="url(#clipPath2)" stroke="none">INTEGER</text>
      <text x="351" xml:space="preserve" y="630.9332" clip-path="url(#clipPath2)" font-weight="bold" stroke="none">modell</text>
      <text x="439" xml:space="preserve" y="630.9332" clip-path="url(#clipPath2)" stroke="none">VARCHAR</text>
      <text x="351" xml:space="preserve" y="650.2457" clip-path="url(#clipPath2)" font-weight="bold" stroke="none">marka</text>
      <text x="439" xml:space="preserve" y="650.2457" clip-path="url(#clipPath2)" stroke="none">VARCHAR</text>
      <text x="351" xml:space="preserve" y="669.5582" clip-path="url(#clipPath2)" font-weight="bold" stroke="none">megjelenes_ev</text>
      <text x="439" xml:space="preserve" y="669.5582" clip-path="url(#clipPath2)" stroke="none">INTEGER</text>
      <text x="351" xml:space="preserve" y="688.8707" clip-path="url(#clipPath2)" font-weight="bold" stroke="none">ar</text>
      <text x="439" xml:space="preserve" y="688.8707" clip-path="url(#clipPath2)" stroke="none">INTEGER</text>
      <text x="351" xml:space="preserve" y="708.1832" clip-path="url(#clipPath2)" font-weight="bold" stroke="none">kepUrl</text>
      <text x="439" xml:space="preserve" y="708.1832" clip-path="url(#clipPath2)" stroke="none">VARCHAR</text>
    </g>
    <g fill="rgb(255,255,204)" transform="matrix(0.7166,0,0,0.7166,7.0365,7.1659)" stroke="rgb(255,255,204)">
      <rect x="0" width="235" height="125.0849" y="909.1341" clip-path="url(#clipPath2)" stroke="none"/>
    </g>
    <g fill="gray" stroke-miterlimit="1.45" transform="matrix(0.7166,0,0,0.7166,7.0365,7.1659)" stroke-linecap="butt" stroke="gray">
      <rect fill="none" x="0" width="235" height="125.0849" y="909.1341" clip-path="url(#clipPath2)"/>
      <text x="97.5" y="926.7589" clip-path="url(#clipPath2)" fill="black" font-family="'Inter'" stroke="none" xml:space="preserve">battery</text>
      <line stroke-linecap="square" clip-path="url(#clipPath2)" fill="none" x1="1" x2="234" y1="933" y2="933" stroke-miterlimit="10"/>
    </g>
    <g stroke-linecap="round" transform="matrix(0.4777,0,0,0.4777,9.9028,678.3624)" fill="silver" image-rendering="optimizeQuality" stroke-linejoin="round" stroke="silver" stroke-width="2" stroke-miterlimit="4">
      <path fill="none" d="M12.4 2.7 C13.3 1.8 14.9 1.8 15.8 2.7 L21.3 8.2 C22.2 9.1 22.2 10.7 21.3 11.6 L17.6 15.3 C16.7 16.2 15.1 16.2 14.2 15.3 L8.7 9.8 C7.8 8.9 7.8 7.3 8.7 6.4 Z" clip-path="url(#clipPath6)"/>
    </g>
    <g stroke-linecap="round" transform="matrix(0.4777,0,0,0.4777,9.9028,678.3624)" fill="silver" image-rendering="optimizeQuality" stroke-linejoin="round" stroke="silver" stroke-width="2" stroke-miterlimit="4">
      <path fill="none" d="M14 7 L17 10" clip-path="url(#clipPath6)"/>
    </g>
    <g stroke-linecap="round" transform="matrix(0.4777,0,0,0.4777,9.9028,678.3624)" fill="silver" image-rendering="optimizeQuality" stroke-linejoin="round" stroke="silver" stroke-width="2" stroke-miterlimit="4">
      <path fill="none" d="M9.4 10.6 L2 18 L2 21 C2 21.6 2.4 22 3 22 L7 22 L7 19 L10 19 L10 16 L12 16 L13.4 14.6" clip-path="url(#clipPath6)"/>
    </g>
    <g stroke-miterlimit="1.45" font-size="11px" font-weight="bold" font-family="'Inter'" transform="matrix(0.7166,0,0,0.7166,7.0365,7.1659)" stroke-linecap="butt">
      <text x="26" xml:space="preserve" y="950.3127" clip-path="url(#clipPath2)" stroke="none">id</text>
    </g>
    <g stroke-miterlimit="1.45" font-size="11px" font-family="'Inter'" transform="matrix(0.7166,0,0,0.7166,7.0365,7.1659)" stroke-linecap="butt">
      <text x="154" xml:space="preserve" y="950.3127" clip-path="url(#clipPath2)" stroke="none">INTEGER</text>
      <text x="26" xml:space="preserve" y="969.6252" clip-path="url(#clipPath2)" font-weight="bold" stroke="none">akkumulator_kapacitas</text>
      <text x="154" xml:space="preserve" y="969.6252" clip-path="url(#clipPath2)" stroke="none">INTEGER</text>
      <text x="26" xml:space="preserve" y="988.9377" clip-path="url(#clipPath2)" font-weight="bold" stroke="none">toltes</text>
      <text x="154" xml:space="preserve" y="988.9377" clip-path="url(#clipPath2)" stroke="none">INTEGER</text>
      <text x="26" xml:space="preserve" y="1008.2502" clip-path="url(#clipPath2)" font-weight="bold" stroke="none">vezetek_nelkuli_toltes</text>
      <text x="154" xml:space="preserve" y="1008.2502" clip-path="url(#clipPath2)" stroke="none">BOOLEAN</text>
      <text x="26" xml:space="preserve" y="1027.5627" clip-path="url(#clipPath2)" font-weight="bold" stroke="none">telephoneId</text>
      <text x="154" xml:space="preserve" y="1027.5627" clip-path="url(#clipPath2)" stroke="none">INTEGER</text>
    </g>
    <g stroke-linecap="round" transform="matrix(0.4777,0,0,0.4777,159.6697,733.7188)" fill="silver" image-rendering="optimizeQuality" stroke-linejoin="round" stroke="silver" stroke-width="2" stroke-miterlimit="4">
      <path fill="none" d="M7 7 L17 7 L17 17" clip-path="url(#clipPath8)"/>
    </g>
    <g stroke-linecap="round" transform="matrix(0.4777,0,0,0.4777,159.6697,733.7188)" fill="silver" image-rendering="optimizeQuality" stroke-linejoin="round" stroke="silver" stroke-width="2" stroke-miterlimit="4">
      <path fill="none" d="M7 17 L17 7" clip-path="url(#clipPath8)"/>
    </g>
    <g fill="rgb(255,255,204)" transform="matrix(0.7166,0,0,0.7166,7.0365,7.1659)" stroke="rgb(255,255,204)">
      <rect x="23" width="189" height="163.7099" y="725.4243" clip-path="url(#clipPath2)" stroke="none"/>
    </g>
    <g fill="gray" stroke-miterlimit="1.45" transform="matrix(0.7166,0,0,0.7166,7.0365,7.1659)" stroke-linecap="butt" stroke="gray">
      <rect fill="none" x="23" width="189" height="163.7099" y="725.4243" clip-path="url(#clipPath2)"/>
      <text x="96.5" y="743.049" clip-path="url(#clipPath2)" fill="black" font-family="'Inter'" stroke="none" xml:space="preserve">camera</text>
      <line stroke-linecap="square" clip-path="url(#clipPath2)" fill="none" x1="24" x2="211" y1="749" y2="749" stroke-miterlimit="10"/>
    </g>
    <g stroke-linecap="round" transform="matrix(0.4777,0,0,0.4777,26.3844,546.7182)" fill="silver" image-rendering="optimizeQuality" stroke-linejoin="round" stroke="silver" stroke-width="2" stroke-miterlimit="4">
      <path fill="none" d="M12.4 2.7 C13.3 1.8 14.9 1.8 15.8 2.7 L21.3 8.2 C22.2 9.1 22.2 10.7 21.3 11.6 L17.6 15.3 C16.7 16.2 15.1 16.2 14.2 15.3 L8.7 9.8 C7.8 8.9 7.8 7.3 8.7 6.4 Z" clip-path="url(#clipPath10)"/>
    </g>
    <g stroke-linecap="round" transform="matrix(0.4777,0,0,0.4777,26.3844,546.7182)" fill="silver" image-rendering="optimizeQuality" stroke-linejoin="round" stroke="silver" stroke-width="2" stroke-miterlimit="4">
      <path fill="none" d="M14 7 L17 10" clip-path="url(#clipPath10)"/>
    </g>
    <g stroke-linecap="round" transform="matrix(0.4777,0,0,0.4777,26.3844,546.7182)" fill="silver" image-rendering="optimizeQuality" stroke-linejoin="round" stroke="silver" stroke-width="2" stroke-miterlimit="4">
      <path fill="none" d="M9.4 10.6 L2 18 L2 21 C2 21.6 2.4 22 3 22 L7 22 L7 19 L10 19 L10 16 L12 16 L13.4 14.6" clip-path="url(#clipPath10)"/>
    </g>
    <g stroke-miterlimit="1.45" font-size="11px" font-weight="bold" font-family="'Inter'" transform="matrix(0.7166,0,0,0.7166,7.0365,7.1659)" stroke-linecap="butt">
      <text x="49" xml:space="preserve" y="766.6029" clip-path="url(#clipPath2)" stroke="none">id</text>
    </g>
    <g stroke-miterlimit="1.45" font-size="11px" font-family="'Inter'" transform="matrix(0.7166,0,0,0.7166,7.0365,7.1659)" stroke-linecap="butt">
      <text x="131" xml:space="preserve" y="766.6029" clip-path="url(#clipPath2)" stroke="none">INTEGER</text>
      <text x="49" xml:space="preserve" y="785.9154" clip-path="url(#clipPath2)" font-weight="bold" stroke="none">fo_kamera</text>
      <text x="131" xml:space="preserve" y="785.9154" clip-path="url(#clipPath2)" stroke="none">INTEGER</text>
      <text x="49" xml:space="preserve" y="805.2279" clip-path="url(#clipPath2)" font-weight="bold" stroke="none">szelfi_kamera</text>
      <text x="131" xml:space="preserve" y="805.2279" clip-path="url(#clipPath2)" stroke="none">INTEGER</text>
      <text x="49" xml:space="preserve" y="824.5404" clip-path="url(#clipPath2)" font-weight="bold" stroke="none">video_felvetel</text>
      <text x="131" xml:space="preserve" y="824.5404" clip-path="url(#clipPath2)" stroke="none">INTEGER</text>
      <text x="49" xml:space="preserve" y="843.8529" clip-path="url(#clipPath2)" font-weight="bold" stroke="none">video_fps</text>
      <text x="131" xml:space="preserve" y="843.8529" clip-path="url(#clipPath2)" stroke="none">INTEGER</text>
      <text x="49" xml:space="preserve" y="863.1654" clip-path="url(#clipPath2)" font-weight="bold" stroke="none">ai_tamogatas</text>
      <text x="131" xml:space="preserve" y="863.1654" clip-path="url(#clipPath2)" stroke="none">BOOLEAN</text>
      <text x="49" xml:space="preserve" y="882.4779" clip-path="url(#clipPath2)" font-weight="bold" stroke="none">telephoneId</text>
      <text x="131" xml:space="preserve" y="882.4779" clip-path="url(#clipPath2)" stroke="none">INTEGER</text>
    </g>
    <g stroke-linecap="round" transform="matrix(0.4777,0,0,0.4777,143.1882,629.7528)" fill="silver" image-rendering="optimizeQuality" stroke-linejoin="round" stroke="silver" stroke-width="2" stroke-miterlimit="4">
      <path fill="none" d="M7 7 L17 7 L17 17" clip-path="url(#clipPath12)"/>
    </g>
    <g stroke-linecap="round" transform="matrix(0.4777,0,0,0.4777,143.1882,629.7528)" fill="silver" image-rendering="optimizeQuality" stroke-linejoin="round" stroke="silver" stroke-width="2" stroke-miterlimit="4">
      <path fill="none" d="M7 17 L17 7" clip-path="url(#clipPath12)"/>
    </g>
    <g fill="rgb(255,255,204)" transform="matrix(0.7166,0,0,0.7166,7.0365,7.1659)" stroke="rgb(255,255,204)">
      <rect x="30" width="175" height="67.1474" y="638.2769" clip-path="url(#clipPath2)" stroke="none"/>
    </g>
    <g fill="gray" stroke-miterlimit="1.45" transform="matrix(0.7166,0,0,0.7166,7.0365,7.1659)" stroke-linecap="butt" stroke="gray">
      <rect fill="none" x="30" width="175" height="67.1474" y="638.2769" clip-path="url(#clipPath2)"/>
      <text x="92" y="655.9016" clip-path="url(#clipPath2)" fill="black" font-family="'Inter'" stroke="none" xml:space="preserve">cart_item</text>
      <line stroke-linecap="square" clip-path="url(#clipPath2)" fill="none" x1="31" x2="204" y1="662" y2="662" stroke-miterlimit="10"/>
    </g>
    <g stroke-linecap="round" transform="matrix(0.4777,0,0,0.4777,31.4005,484.2694)" fill="silver" image-rendering="optimizeQuality" stroke-linejoin="round" stroke="silver" stroke-width="2" stroke-miterlimit="4">
      <path fill="none" d="M12.4 2.7 C13.3 1.8 14.9 1.8 15.8 2.7 L21.3 8.2 C22.2 9.1 22.2 10.7 21.3 11.6 L17.6 15.3 C16.7 16.2 15.1 16.2 14.2 15.3 L8.7 9.8 C7.8 8.9 7.8 7.3 8.7 6.4 Z" clip-path="url(#clipPath14)"/>
    </g>
    <g stroke-linecap="round" transform="matrix(0.4777,0,0,0.4777,31.4005,484.2694)" fill="silver" image-rendering="optimizeQuality" stroke-linejoin="round" stroke="silver" stroke-width="2" stroke-miterlimit="4">
      <path fill="none" d="M14 7 L17 10" clip-path="url(#clipPath14)"/>
    </g>
    <g stroke-linecap="round" transform="matrix(0.4777,0,0,0.4777,31.4005,484.2694)" fill="silver" image-rendering="optimizeQuality" stroke-linejoin="round" stroke="silver" stroke-width="2" stroke-miterlimit="4">
      <path fill="none" d="M9.4 10.6 L2 18 L2 21 C2 21.6 2.4 22 3 22 L7 22 L7 19 L10 19 L10 16 L12 16 L13.4 14.6" clip-path="url(#clipPath14)"/>
    </g>
    <g stroke-miterlimit="1.45" font-size="11px" font-weight="bold" font-family="'Inter'" transform="matrix(0.7166,0,0,0.7166,7.0365,7.1659)" stroke-linecap="butt">
      <text x="56" xml:space="preserve" y="679.4556" clip-path="url(#clipPath2)" stroke="none">id</text>
    </g>
    <g stroke-miterlimit="1.45" font-size="11px" font-family="'Inter'" transform="matrix(0.7166,0,0,0.7166,7.0365,7.1659)" stroke-linecap="butt">
      <text x="128" xml:space="preserve" y="679.4556" clip-path="url(#clipPath2)" stroke="none">INTEGER</text>
      <text x="56" xml:space="preserve" y="698.7681" clip-path="url(#clipPath2)" font-weight="bold" stroke="none">telephoneId</text>
      <text x="128" xml:space="preserve" y="698.7681" clip-path="url(#clipPath2)" stroke="none">INTEGER</text>
    </g>
    <g stroke-linecap="round" transform="matrix(0.4777,0,0,0.4777,138.172,498.1085)" fill="silver" image-rendering="optimizeQuality" stroke-linejoin="round" stroke="silver" stroke-width="2" stroke-miterlimit="4">
      <path fill="none" d="M7 7 L17 7 L17 17" clip-path="url(#clipPath16)"/>
    </g>
    <g stroke-linecap="round" transform="matrix(0.4777,0,0,0.4777,138.172,498.1085)" fill="silver" image-rendering="optimizeQuality" stroke-linejoin="round" stroke="silver" stroke-width="2" stroke-miterlimit="4">
      <path fill="none" d="M7 17 L17 7" clip-path="url(#clipPath16)"/>
    </g>
    <g fill="rgb(255,255,204)" transform="matrix(0.7166,0,0,0.7166,7.0365,7.1659)" stroke="rgb(255,255,204)">
      <rect x="30" width="175" height="67.1474" y="551.1296" clip-path="url(#clipPath2)" stroke="none"/>
    </g>
    <g fill="gray" stroke-miterlimit="1.45" transform="matrix(0.7166,0,0,0.7166,7.0365,7.1659)" stroke-linecap="butt" stroke="gray">
      <rect fill="none" x="30" width="175" height="67.1474" y="551.1296" clip-path="url(#clipPath2)"/>
      <text x="78.5" y="568.7543" clip-path="url(#clipPath2)" fill="black" font-family="'Inter'" stroke="none" xml:space="preserve">compare_item</text>
      <line stroke-linecap="square" clip-path="url(#clipPath2)" fill="none" x1="31" x2="204" y1="575" y2="575" stroke-miterlimit="10"/>
    </g>
    <g stroke-linecap="round" transform="matrix(0.4777,0,0,0.4777,31.4005,421.8207)" fill="silver" image-rendering="optimizeQuality" stroke-linejoin="round" stroke="silver" stroke-width="2" stroke-miterlimit="4">
      <path fill="none" d="M12.4 2.7 C13.3 1.8 14.9 1.8 15.8 2.7 L21.3 8.2 C22.2 9.1 22.2 10.7 21.3 11.6 L17.6 15.3 C16.7 16.2 15.1 16.2 14.2 15.3 L8.7 9.8 C7.8 8.9 7.8 7.3 8.7 6.4 Z" clip-path="url(#clipPath14)"/>
    </g>
    <g stroke-linecap="round" transform="matrix(0.4777,0,0,0.4777,31.4005,421.8207)" fill="silver" image-rendering="optimizeQuality" stroke-linejoin="round" stroke="silver" stroke-width="2" stroke-miterlimit="4">
      <path fill="none" d="M14 7 L17 10" clip-path="url(#clipPath14)"/>
    </g>
    <g stroke-linecap="round" transform="matrix(0.4777,0,0,0.4777,31.4005,421.8207)" fill="silver" image-rendering="optimizeQuality" stroke-linejoin="round" stroke="silver" stroke-width="2" stroke-miterlimit="4">
      <path fill="none" d="M9.4 10.6 L2 18 L2 21 C2 21.6 2.4 22 3 22 L7 22 L7 19 L10 19 L10 16 L12 16 L13.4 14.6" clip-path="url(#clipPath14)"/>
    </g>
    <g stroke-miterlimit="1.45" font-size="11px" font-weight="bold" font-family="'Inter'" transform="matrix(0.7166,0,0,0.7166,7.0365,7.1659)" stroke-linecap="butt">
      <text x="56" xml:space="preserve" y="592.3082" clip-path="url(#clipPath2)" stroke="none">id</text>
    </g>
    <g stroke-miterlimit="1.45" font-size="11px" font-family="'Inter'" transform="matrix(0.7166,0,0,0.7166,7.0365,7.1659)" stroke-linecap="butt">
      <text x="128" xml:space="preserve" y="592.3082" clip-path="url(#clipPath2)" stroke="none">INTEGER</text>
      <text x="56" xml:space="preserve" y="611.6207" clip-path="url(#clipPath2)" font-weight="bold" stroke="none">telephoneId</text>
      <text x="128" xml:space="preserve" y="611.6207" clip-path="url(#clipPath2)" stroke="none">INTEGER</text>
    </g>
    <g stroke-linecap="round" transform="matrix(0.4777,0,0,0.4777,138.172,435.6598)" fill="silver" image-rendering="optimizeQuality" stroke-linejoin="round" stroke="silver" stroke-width="2" stroke-miterlimit="4">
      <path fill="none" d="M7 7 L17 7 L17 17" clip-path="url(#clipPath16)"/>
    </g>
    <g stroke-linecap="round" transform="matrix(0.4777,0,0,0.4777,138.172,435.6598)" fill="silver" image-rendering="optimizeQuality" stroke-linejoin="round" stroke="silver" stroke-width="2" stroke-miterlimit="4">
      <path fill="none" d="M7 17 L17 7" clip-path="url(#clipPath16)"/>
    </g>
    <g fill="rgb(255,255,204)" transform="matrix(0.7166,0,0,0.7166,7.0365,7.1659)" stroke="rgb(255,255,204)">
      <rect x="5.5" width="224" height="183.0224" y="348.1072" clip-path="url(#clipPath2)" stroke="none"/>
    </g>
    <g fill="gray" stroke-miterlimit="1.45" transform="matrix(0.7166,0,0,0.7166,7.0365,7.1659)" stroke-linecap="butt" stroke="gray">
      <rect fill="none" x="5.5" width="224" height="183.0224" y="348.1072" clip-path="url(#clipPath2)"/>
      <text x="97.5" y="365.7319" clip-path="url(#clipPath2)" fill="black" font-family="'Inter'" stroke="none" xml:space="preserve">display</text>
      <line stroke-linecap="square" clip-path="url(#clipPath2)" fill="none" x1="6" x2="228" y1="372" y2="372" stroke-miterlimit="10"/>
    </g>
    <g stroke-linecap="round" transform="matrix(0.4777,0,0,0.4777,13.8441,276.3374)" fill="silver" image-rendering="optimizeQuality" stroke-linejoin="round" stroke="silver" stroke-width="2" stroke-miterlimit="4">
      <path fill="none" d="M12.4 2.7 C13.3 1.8 14.9 1.8 15.8 2.7 L21.3 8.2 C22.2 9.1 22.2 10.7 21.3 11.6 L17.6 15.3 C16.7 16.2 15.1 16.2 14.2 15.3 L8.7 9.8 C7.8 8.9 7.8 7.3 8.7 6.4 Z" clip-path="url(#clipPath16)"/>
    </g>
    <g stroke-linecap="round" transform="matrix(0.4777,0,0,0.4777,13.8441,276.3374)" fill="silver" image-rendering="optimizeQuality" stroke-linejoin="round" stroke="silver" stroke-width="2" stroke-miterlimit="4">
      <path fill="none" d="M14 7 L17 10" clip-path="url(#clipPath16)"/>
    </g>
    <g stroke-linecap="round" transform="matrix(0.4777,0,0,0.4777,13.8441,276.3374)" fill="silver" image-rendering="optimizeQuality" stroke-linejoin="round" stroke="silver" stroke-width="2" stroke-miterlimit="4">
      <path fill="none" d="M9.4 10.6 L2 18 L2 21 C2 21.6 2.4 22 3 22 L7 22 L7 19 L10 19 L10 16 L12 16 L13.4 14.6" clip-path="url(#clipPath16)"/>
    </g>
    <g stroke-miterlimit="1.45" font-size="11px" font-weight="bold" font-family="'Inter'" transform="matrix(0.7166,0,0,0.7166,7.0365,7.1659)" stroke-linecap="butt">
      <text x="31.5" xml:space="preserve" y="389.2858" clip-path="url(#clipPath2)" stroke="none">id</text>
    </g>
    <g stroke-miterlimit="1.45" font-size="11px" font-family="'Inter'" transform="matrix(0.7166,0,0,0.7166,7.0365,7.1659)" stroke-linecap="butt">
      <text x="148.5" xml:space="preserve" y="389.2858" clip-path="url(#clipPath2)" stroke="none">INTEGER</text>
      <text x="31.5" xml:space="preserve" y="408.5983" clip-path="url(#clipPath2)" font-weight="bold" stroke="none">kijelzo_meret</text>
      <text x="148.5" xml:space="preserve" y="408.5983" clip-path="url(#clipPath2)" stroke="none">DECIMAL</text>
      <text x="31.5" xml:space="preserve" y="427.9108" clip-path="url(#clipPath2)" font-weight="bold" stroke="none">felbontas_szelesseg</text>
      <text x="148.5" xml:space="preserve" y="427.9108" clip-path="url(#clipPath2)" stroke="none">INTEGER</text>
      <text x="31.5" xml:space="preserve" y="447.2233" clip-path="url(#clipPath2)" font-weight="bold" stroke="none">felbontas_magassag</text>
      <text x="148.5" xml:space="preserve" y="447.2233" clip-path="url(#clipPath2)" stroke="none">INTEGER</text>
      <text x="31.5" xml:space="preserve" y="466.5358" clip-path="url(#clipPath2)" font-weight="bold" stroke="none">kepfrissites</text>
      <text x="148.5" xml:space="preserve" y="466.5358" clip-path="url(#clipPath2)" stroke="none">INTEGER</text>
      <text x="31.5" xml:space="preserve" y="485.8483" clip-path="url(#clipPath2)" font-weight="bold" stroke="none">panel_tipus</text>
      <text x="148.5" xml:space="preserve" y="485.8483" clip-path="url(#clipPath2)" stroke="none">VARCHAR</text>
      <text x="31.5" xml:space="preserve" y="505.1608" clip-path="url(#clipPath2)" font-weight="bold" stroke="none">vedouveg</text>
      <text x="148.5" xml:space="preserve" y="505.1608" clip-path="url(#clipPath2)" stroke="none">VARCHAR</text>
      <text x="31.5" xml:space="preserve" y="524.4733" clip-path="url(#clipPath2)" font-weight="bold" stroke="none">telephoneId</text>
      <text x="148.5" xml:space="preserve" y="524.4733" clip-path="url(#clipPath2)" stroke="none">INTEGER</text>
    </g>
    <g stroke-linecap="round" transform="matrix(0.4777,0,0,0.4777,155.7284,373.2111)" fill="silver" image-rendering="optimizeQuality" stroke-linejoin="round" stroke="silver" stroke-width="2" stroke-miterlimit="4">
      <path fill="none" d="M7 7 L17 7 L17 17" clip-path="url(#clipPath14)"/>
    </g>
    <g stroke-linecap="round" transform="matrix(0.4777,0,0,0.4777,155.7284,373.2111)" fill="silver" image-rendering="optimizeQuality" stroke-linejoin="round" stroke="silver" stroke-width="2" stroke-miterlimit="4">
      <path fill="none" d="M7 17 L17 7" clip-path="url(#clipPath14)"/>
    </g>
    <g fill="rgb(255,255,204)" transform="matrix(0.7166,0,0,0.7166,7.0365,7.1659)" stroke="rgb(255,255,204)">
      <rect x="28" width="179" height="125.0849" y="203.0224" clip-path="url(#clipPath2)" stroke="none"/>
    </g>
    <g fill="gray" stroke-miterlimit="1.45" transform="matrix(0.7166,0,0,0.7166,7.0365,7.1659)" stroke-linecap="butt" stroke="gray">
      <rect fill="none" x="28" width="179" height="125.0849" y="203.0224" clip-path="url(#clipPath2)"/>
      <text x="111" y="220.6471" clip-path="url(#clipPath2)" fill="black" font-family="'Inter'" stroke="none" xml:space="preserve">os</text>
      <line stroke-linecap="square" clip-path="url(#clipPath2)" fill="none" x1="29" x2="206" y1="227" y2="227" stroke-miterlimit="10"/>
    </g>
    <g stroke-linecap="round" transform="matrix(0.4777,0,0,0.4777,29.9673,172.3714)" fill="silver" image-rendering="optimizeQuality" stroke-linejoin="round" stroke="silver" stroke-width="2" stroke-miterlimit="4">
      <path fill="none" d="M12.4 2.7 C13.3 1.8 14.9 1.8 15.8 2.7 L21.3 8.2 C22.2 9.1 22.2 10.7 21.3 11.6 L17.6 15.3 C16.7 16.2 15.1 16.2 14.2 15.3 L8.7 9.8 C7.8 8.9 7.8 7.3 8.7 6.4 Z" clip-path="url(#clipPath4)"/>
    </g>
    <g stroke-linecap="round" transform="matrix(0.4777,0,0,0.4777,29.9673,172.3714)" fill="silver" image-rendering="optimizeQuality" stroke-linejoin="round" stroke="silver" stroke-width="2" stroke-miterlimit="4">
      <path fill="none" d="M14 7 L17 10" clip-path="url(#clipPath4)"/>
    </g>
    <g stroke-linecap="round" transform="matrix(0.4777,0,0,0.4777,29.9673,172.3714)" fill="silver" image-rendering="optimizeQuality" stroke-linejoin="round" stroke="silver" stroke-width="2" stroke-miterlimit="4">
      <path fill="none" d="M9.4 10.6 L2 18 L2 21 C2 21.6 2.4 22 3 22 L7 22 L7 19 L10 19 L10 16 L12 16 L13.4 14.6" clip-path="url(#clipPath4)"/>
    </g>
    <g stroke-miterlimit="1.45" font-size="11px" font-weight="bold" font-family="'Inter'" transform="matrix(0.7166,0,0,0.7166,7.0365,7.1659)" stroke-linecap="butt">
      <text x="54" xml:space="preserve" y="244.201" clip-path="url(#clipPath2)" stroke="none">id</text>
    </g>
    <g stroke-miterlimit="1.45" font-size="11px" font-family="'Inter'" transform="matrix(0.7166,0,0,0.7166,7.0365,7.1659)" stroke-linecap="butt">
      <text x="126" xml:space="preserve" y="244.201" clip-path="url(#clipPath2)" stroke="none">INTEGER</text>
      <text x="54" xml:space="preserve" y="263.5135" clip-path="url(#clipPath2)" font-weight="bold" stroke="none">os</text>
      <text x="126" xml:space="preserve" y="263.5135" clip-path="url(#clipPath2)" stroke="none">VARCHAR</text>
      <text x="54" xml:space="preserve" y="282.826" clip-path="url(#clipPath2)" font-weight="bold" stroke="none">os_verzio</text>
      <text x="126" xml:space="preserve" y="282.826" clip-path="url(#clipPath2)" stroke="none">INTEGER</text>
      <text x="54" xml:space="preserve" y="302.1385" clip-path="url(#clipPath2)" font-weight="bold" stroke="none">ui</text>
      <text x="126" xml:space="preserve" y="302.1385" clip-path="url(#clipPath2)" stroke="none">VARCHAR</text>
      <text x="54" xml:space="preserve" y="321.451" clip-path="url(#clipPath2)" font-weight="bold" stroke="none">telephoneId</text>
      <text x="126" xml:space="preserve" y="321.451" clip-path="url(#clipPath2)" stroke="none">INTEGER</text>
    </g>
    <g stroke-linecap="round" transform="matrix(0.4777,0,0,0.4777,139.6052,227.7278)" fill="silver" image-rendering="optimizeQuality" stroke-linejoin="round" stroke="silver" stroke-width="2" stroke-miterlimit="4">
      <path fill="none" d="M7 7 L17 7 L17 17" clip-path="url(#clipPath4)"/>
    </g>
    <g stroke-linecap="round" transform="matrix(0.4777,0,0,0.4777,139.6052,227.7278)" fill="silver" image-rendering="optimizeQuality" stroke-linejoin="round" stroke="silver" stroke-width="2" stroke-miterlimit="4">
      <path fill="none" d="M7 17 L17 7" clip-path="url(#clipPath4)"/>
    </g>
    <g fill="rgb(255,255,204)" transform="matrix(0.7166,0,0,0.7166,7.0365,7.1659)" stroke="rgb(255,255,204)">
      <rect x="17.5" width="200" height="183.0224" y="0" clip-path="url(#clipPath2)" stroke="none"/>
    </g>
    <g fill="gray" stroke-miterlimit="1.45" transform="matrix(0.7166,0,0,0.7166,7.0365,7.1659)" stroke-linecap="butt" stroke="gray">
      <rect fill="none" x="17.5" width="200" height="183.0224" y="0" clip-path="url(#clipPath2)"/>
      <text x="81" y="17.6247" clip-path="url(#clipPath2)" fill="black" font-family="'Inter'" stroke="none" xml:space="preserve">phone_specs</text>
      <line stroke-linecap="square" clip-path="url(#clipPath2)" fill="none" x1="18" x2="216" y1="24" y2="24" stroke-miterlimit="10"/>
    </g>
    <g stroke-linecap="round" transform="matrix(0.4777,0,0,0.4777,22.4431,26.8881)" fill="silver" image-rendering="optimizeQuality" stroke-linejoin="round" stroke="silver" stroke-width="2" stroke-miterlimit="4">
      <path fill="none" d="M12.4 2.7 C13.3 1.8 14.9 1.8 15.8 2.7 L21.3 8.2 C22.2 9.1 22.2 10.7 21.3 11.6 L17.6 15.3 C16.7 16.2 15.1 16.2 14.2 15.3 L8.7 9.8 C7.8 8.9 7.8 7.3 8.7 6.4 Z" clip-path="url(#clipPath16)"/>
    </g>
    <g stroke-linecap="round" transform="matrix(0.4777,0,0,0.4777,22.4431,26.8881)" fill="silver" image-rendering="optimizeQuality" stroke-linejoin="round" stroke="silver" stroke-width="2" stroke-miterlimit="4">
      <path fill="none" d="M14 7 L17 10" clip-path="url(#clipPath16)"/>
    </g>
    <g stroke-linecap="round" transform="matrix(0.4777,0,0,0.4777,22.4431,26.8881)" fill="silver" image-rendering="optimizeQuality" stroke-linejoin="round" stroke="silver" stroke-width="2" stroke-miterlimit="4">
      <path fill="none" d="M9.4 10.6 L2 18 L2 21 C2 21.6 2.4 22 3 22 L7 22 L7 19 L10 19 L10 16 L12 16 L13.4 14.6" clip-path="url(#clipPath16)"/>
    </g>
    <g stroke-miterlimit="1.45" font-size="11px" font-weight="bold" font-family="'Inter'" transform="matrix(0.7166,0,0,0.7166,7.0365,7.1659)" stroke-linecap="butt">
      <text x="43.5" xml:space="preserve" y="41.1786" clip-path="url(#clipPath2)" stroke="none">id</text>
    </g>
    <g stroke-miterlimit="1.45" font-size="11px" font-family="'Inter'" transform="matrix(0.7166,0,0,0.7166,7.0365,7.1659)" stroke-linecap="butt">
      <text x="136.5" xml:space="preserve" y="41.1786" clip-path="url(#clipPath2)" stroke="none">INTEGER</text>
      <text x="43.5" xml:space="preserve" y="60.4911" clip-path="url(#clipPath2)" font-weight="bold" stroke="none">cpu</text>
      <text x="136.5" xml:space="preserve" y="60.4911" clip-path="url(#clipPath2)" stroke="none">VARCHAR</text>
      <text x="43.5" xml:space="preserve" y="79.8036" clip-path="url(#clipPath2)" font-weight="bold" stroke="none">gpu</text>
      <text x="136.5" xml:space="preserve" y="79.8036" clip-path="url(#clipPath2)" stroke="none">VARCHAR</text>
      <text x="43.5" xml:space="preserve" y="99.1161" clip-path="url(#clipPath2)" font-weight="bold" stroke="none">antutuscore</text>
      <text x="136.5" xml:space="preserve" y="99.1161" clip-path="url(#clipPath2)" stroke="none">INTEGER</text>
      <text x="43.5" xml:space="preserve" y="118.4286" clip-path="url(#clipPath2)" font-weight="bold" stroke="none">memory</text>
      <text x="136.5" xml:space="preserve" y="118.4286" clip-path="url(#clipPath2)" stroke="none">INTEGER</text>
      <text x="43.5" xml:space="preserve" y="137.7411" clip-path="url(#clipPath2)" font-weight="bold" stroke="none">magok_szama</text>
      <text x="136.5" xml:space="preserve" y="137.7411" clip-path="url(#clipPath2)" stroke="none">INTEGER</text>
      <text x="43.5" xml:space="preserve" y="157.0536" clip-path="url(#clipPath2)" font-weight="bold" stroke="none">tarolo_kapacitas</text>
      <text x="136.5" xml:space="preserve" y="157.0536" clip-path="url(#clipPath2)" stroke="none">INTEGER</text>
      <text x="43.5" xml:space="preserve" y="176.3661" clip-path="url(#clipPath2)" font-weight="bold" stroke="none">telephoneId</text>
      <text x="136.5" xml:space="preserve" y="176.3661" clip-path="url(#clipPath2)" stroke="none">INTEGER</text>
    </g>
    <g stroke-linecap="round" transform="matrix(0.4777,0,0,0.4777,147.1294,123.7618)" fill="silver" image-rendering="optimizeQuality" stroke-linejoin="round" stroke="silver" stroke-width="2" stroke-miterlimit="4">
      <path fill="none" d="M7 7 L17 7 L17 17" clip-path="url(#clipPath4)"/>
    </g>
    <g stroke-linecap="round" transform="matrix(0.4777,0,0,0.4777,147.1294,123.7618)" fill="silver" image-rendering="optimizeQuality" stroke-linejoin="round" stroke="silver" stroke-width="2" stroke-miterlimit="4">
      <path fill="none" d="M7 17 L17 7" clip-path="url(#clipPath4)"/>
    </g>
    <g fill="rgb(255,255,204)" transform="matrix(0.7166,0,0,0.7166,7.0365,7.1659)" stroke="rgb(255,255,204)">
      <rect x="561" width="152" height="86.4599" y="0" clip-path="url(#clipPath2)" stroke="none"/>
    </g>
    <g fill="gray" stroke-miterlimit="1.45" transform="matrix(0.7166,0,0,0.7166,7.0365,7.1659)" stroke-linecap="butt" stroke="gray">
      <rect fill="none" x="561" width="152" height="86.4599" y="0" clip-path="url(#clipPath2)"/>
      <text x="625" y="17.6247" clip-path="url(#clipPath2)" fill="black" font-family="'Inter'" stroke="none" xml:space="preserve">user</text>
      <line stroke-linecap="square" clip-path="url(#clipPath2)" fill="none" x1="562" x2="712" y1="24" y2="24" stroke-miterlimit="10"/>
    </g>
    <g stroke-linecap="round" transform="matrix(0.4777,0,0,0.4777,411.9085,26.8881)" fill="silver" image-rendering="optimizeQuality" stroke-linejoin="round" stroke="silver" stroke-width="2" stroke-miterlimit="4">
      <path fill="none" d="M12.4 2.7 C13.3 1.8 14.9 1.8 15.8 2.7 L21.3 8.2 C22.2 9.1 22.2 10.7 21.3 11.6 L17.6 15.3 C16.7 16.2 15.1 16.2 14.2 15.3 L8.7 9.8 C7.8 8.9 7.8 7.3 8.7 6.4 Z" clip-path="url(#clipPath16)"/>
    </g>
    <g stroke-linecap="round" transform="matrix(0.4777,0,0,0.4777,411.9085,26.8881)" fill="silver" image-rendering="optimizeQuality" stroke-linejoin="round" stroke="silver" stroke-width="2" stroke-miterlimit="4">
      <path fill="none" d="M14 7 L17 10" clip-path="url(#clipPath16)"/>
    </g>
    <g stroke-linecap="round" transform="matrix(0.4777,0,0,0.4777,411.9085,26.8881)" fill="silver" image-rendering="optimizeQuality" stroke-linejoin="round" stroke="silver" stroke-width="2" stroke-miterlimit="4">
      <path fill="none" d="M9.4 10.6 L2 18 L2 21 C2 21.6 2.4 22 3 22 L7 22 L7 19 L10 19 L10 16 L12 16 L13.4 14.6" clip-path="url(#clipPath16)"/>
    </g>
    <g stroke-miterlimit="1.45" font-size="11px" font-weight="bold" font-family="'Inter'" transform="matrix(0.7166,0,0,0.7166,7.0365,7.1659)" stroke-linecap="butt">
      <text x="587" xml:space="preserve" y="41.1786" clip-path="url(#clipPath2)" stroke="none">id</text>
    </g>
    <g stroke-miterlimit="1.45" font-size="11px" font-family="'Inter'" transform="matrix(0.7166,0,0,0.7166,7.0365,7.1659)" stroke-linecap="butt">
      <text x="648" xml:space="preserve" y="41.1786" clip-path="url(#clipPath2)" stroke="none">INTEGER</text>
      <text x="587" xml:space="preserve" y="60.4911" clip-path="url(#clipPath2)" font-weight="bold" stroke="none">username</text>
      <text x="648" xml:space="preserve" y="60.4911" clip-path="url(#clipPath2)" stroke="none">VARCHAR</text>
      <text x="587" xml:space="preserve" y="79.8036" clip-path="url(#clipPath2)" font-weight="bold" stroke="none">password</text>
      <text x="648" xml:space="preserve" y="79.8036" clip-path="url(#clipPath2)" stroke="none">VARCHAR</text>
    </g>
    <g fill="gray" stroke-miterlimit="1.45" transform="matrix(0.7166,0,0,0.7166,7.0365,7.1659)" stroke-linecap="butt" stroke="gray">
      <path fill="none" d="M235.0391 1022.5627 L275 1022.5627 L275 606.6207 L316.9512 606.6207" clip-path="url(#clipPath2)"/>
    </g>
    <g fill="gray" stroke-miterlimit="1.45" transform="matrix(0.7166,0,0,0.7166,7.0365,7.1659)" stroke-linecap="butt" stroke="gray">
      <path d="M324.9512 606.6207 L312.9512 601.6207 L315.9512 606.6207 L312.9512 611.6207 Z" stroke="none" clip-path="url(#clipPath2)"/>
      <path fill="none" d="M212.0259 877.4779 L265 877.4779 L265 606.6207 L316.9707 606.6207" clip-path="url(#clipPath2)"/>
      <path d="M324.9707 606.6207 L312.9707 601.6207 L315.9707 606.6207 L312.9707 611.6207 Z" clip-path="url(#clipPath2)" stroke="none"/>
      <path fill="none" d="M205.0488 693.7681 L255 693.7681 L255 606.6207 L316.9658 606.6207" clip-path="url(#clipPath2)"/>
      <path d="M324.9658 606.6207 L312.9658 601.6207 L315.9658 606.6207 L312.9658 611.6207 Z" clip-path="url(#clipPath2)" stroke="none"/>
      <path fill="none" d="M205.0293 606.6207 L316.9707 606.6207" clip-path="url(#clipPath2)"/>
      <path d="M324.9707 606.6207 L312.9707 601.6207 L315.9707 606.6207 L312.9707 611.6207 Z" clip-path="url(#clipPath2)" stroke="none"/>
      <path fill="none" d="M229.5271 519.4733 L285 519.4733 L285 606.6207 L316.9609 606.6207" clip-path="url(#clipPath2)"/>
      <path d="M324.9609 606.6207 L312.9609 601.6207 L315.9609 606.6207 L312.9609 611.6207 Z" clip-path="url(#clipPath2)" stroke="none"/>
      <path fill="none" d="M207.043 316.451 L295 316.451 L295 606.6207 L316.9707 606.6207" clip-path="url(#clipPath2)"/>
      <path d="M324.9707 606.6207 L312.9707 601.6207 L315.9707 606.6207 L312.9707 611.6207 Z" clip-path="url(#clipPath2)" stroke="none"/>
      <path fill="none" d="M217.5427 171.3661 L305 171.3661 L305 606.6207 L316.9609 606.6207" clip-path="url(#clipPath2)"/>
      <path d="M324.9609 606.6207 L312.9609 601.6207 L315.9609 606.6207 L312.9609 611.6207 Z" clip-path="url(#clipPath2)" stroke="none"/>
    </g>
  </g>
</svg>
